Coordinates
version=1
nRows=6
nColumns=34
inDegrees=yes

Units are S.I. units (second, meters, Newtons, ...)
Angles are in degrees.

endheader
time	pelvis_tilt	pelvis_list	pelvis_rotation	pelvis_tx	pelvis_ty	pelvis_tz	hip_flexion_r	hip_adduction_r	hip_rotation_r	knee_angle_r	ankle_angle_r	subtalar_angle_r	mtp_angle_r	hip_flexion_l	hip_adduction_l	hip_rotation_l	knee_angle_l	socket_flexion	socket_adduction	socket_rotation	socket_tx	socket_ty	socket_tz	pros_ankle_rx	pros_ankle_ry	pros_ankle_rz	pros_ankle_tx	pros_ankle_ty	pros_ankle_tz	foot_flex	lumbar_extension	lumbar_bending	lumbar_rotation
      0.90416667	      2.70872176	     -9.37598400	      9.80334244	      0.46059604	      1.04778640	      0.35371852	      6.69013140	     12.54393533	    -16.43707054	    -16.09039544	      6.59054634	     15.42271072	     15.58080494	     19.56095736	    -14.60649623	      5.50634547	    -80.85337956	    -18.83657141	      0.00000000	      0.00000000	      0.00000000	      0.00642915	      0.00000000	      0.00000000	      0.00000000	      0.00000000	      0.00000000	      0.00000000	      0.00000000	     -6.60100031	    -13.23615868	      7.22593365	    -28.53620860
      0.90833333	      2.70912126	     -9.19634994	      9.78339806	      0.46568600	      1.04900387	      0.35362929	      6.16107580	     12.41051584	    -16.49251349	    -15.75640026	      6.51428424	     15.75113153	     15.71120236	     19.91884157	    -14.19310740	      5.66548324	    -80.41555371	    -19.00141908	      0.00000000	      0.00000000	      0.00000000	      0.00654748	      0.00000000	      0.00000000	      0.00000000	      0.00000000	      0.00000000	      0.00000000	      0.00000000	     -6.72483871	    -13.21233978	      6.99801539	    -28.46996029
      0.91250000	      3.03271441	     -8.96101086	      9.90530902	      0.47093495	      1.05070510	      0.35328569	      5.24421874	     12.18285149	    -17.09762481	    -15.36642452	      6.25872926	     16.82628384	     17.29333239	     19.85574944	    -13.76190198	      5.86763600	    -79.77813835	    -19.08668354	      0.00000000	      0.00000000	      0.00000000	      0.00638825	      0.00000000	      0.00000000	      0.00000000	      0.00000000	      0.00000000	      0.00000000	      0.00000000	     -6.78855343	    -13.58975682	      6.83330447	    -28.60969704
      0.91666667	      2.94480275	     -8.82717848	      9.81344829	      0.47584019	      1.05175463	      0.35330055	      4.89065552	     12.08647564	    -17.02724319	    -15.15016988	      6.22878178	     16.97324939	     17.34166685	     20.30389956	    -13.38361828	      6.00204505	    -79.30685801	    -19.26782261	      0.00000000	      0.00000000	      0.00000000	      0.00660063	      0.00000000	      0.00000000	      0.00000000	      0.00000000	      0.00000000	      0.00000000	      0.00000000	     -6.91602672	    -13.53817553	      6.64829017	    -28.49364088
      0.92083333	      2.87516615	     -8.75145723	      9.68602614	      0.48072403	      1.05277884	      0.35328549	      4.58864283	     12.02966842	    -16.98754317	    -15.05114933	      6.20391231	     17.07127048	     17.36611846	     20.70368567	    -13.09027996	      6.09746588	    -78.80621219	    -19.50020902	      0.00000000	      0.00000000	      0.00000000	      0.00680066	      0.00000000	      0.00000000	      0.00000000	      0.00000000	      0.00000000	      0.00000000	      0.00000000	     -6.98220020	    -13.57345508	      6.61011660	    -28.42724181
      0.92500000	      2.82786916	     -8.68371580	      9.56779641	      0.48549949	      1.05379997	      0.35332337	      4.27684974	     11.98590689	    -16.93682325	    -14.96100653	      6.17602043	     17.17623851	     17.38576850	     21.09202372	    -12.80902455	      6.21505993	    -78.29441975	    -19.73850878	      0.00000000	      0.00000000	      0.00000000	      0.00706033	      0.00000000	      0.00000000	      0.00000000	      0.00000000	      0.00000000	      0.00000000	      0.00000000	     -7.05449640	    -13.58309204	      6.53172591	    -28.35414249
